<svg xmlns="http://www.w3.org/2000/svg" width="40" height="20" viewBox="0 0 40 20" fill="none">
    <path d="M20 0C15.0374 0 11 4.0374 11 9C11 13.9626 15.0374 18 20 18C24.9626 18 29 13.9626 29 9C29 4.0374 24.9626 0 20 0ZM20 16C16.1402 16 13 12.8598 13 9C13 5.1402 16.1402 2 20 2C23.8598 2 27 5.1402 27 9C27 12.8598 23.8598 16 20 16Z" fill="#3D5D53"/>
    <path d="M20 4C17.2386 4 15 6.23858 15 9C15 11.7614 17.2386 14 20 14C22.7614 14 25 11.7614 25 9C25 6.23858 22.7614 4 20 4ZM20 12C18.3431 12 17 10.6569 17 9C17 7.34315 18.3431 6 20 6C21.6569 6 23 7.34315 23 9C23 10.6569 21.6569 12 20 12Z" fill="#3D5D53"/>
</svg>